<svg width="164" height="44" viewBox="0 0 164 44" fill="none" xmlns="http://www.w3.org/2000/svg">
<path d="M146.083 0.856151C137.801 -0.793588 130.142 2.28715 125.299 7.87904C121.629 12.1193 116.534 14.8557 110.929 14.8557H53.307C47.7018 14.8557 42.6069 12.1193 38.9364 7.87904C34.0931 2.28715 26.4341 -0.800213 18.1523 0.856151C9.89035 2.50589 3.17214 9.13794 1.44952 17.3866C-1.4723 31.3796 9.12843 43.6963 22.6046 43.6963C29.2433 43.6963 35.1797 40.7017 39.1417 35.9843C42.7062 31.744 47.9271 29.2461 53.466 29.2461H110.77C116.315 29.2461 121.529 31.744 125.094 35.9843C129.056 40.695 134.992 43.6963 141.631 43.6963C155.107 43.6963 165.708 31.3796 162.786 17.3866C161.063 9.13794 154.345 2.50589 146.083 0.856151Z" fill="white"/>
</svg>
