<svg width="150" height="137" viewBox="0 0 150 137" fill="none" xmlns="http://www.w3.org/2000/svg">
<path d="M142.866 99.6541C137.148 93.9164 129.483 92.1143 122.566 93.6978C116.378 95.1156 109.898 94.387 104.624 90.849L92.6783 82.8255C85.9667 78.3202 81.9384 70.7672 81.9384 62.6775V55.3298C81.9384 48.6779 84.6416 42.2909 89.5047 37.7591C94.7256 32.896 97.5348 25.4821 95.938 17.4984C94.2883 9.23647 87.6496 2.52492 79.4075 0.802302C65.4212 -2.11952 53.1045 8.48132 53.1045 21.9575C53.1045 28.2384 55.7878 33.8833 60.0678 37.8321C65.1031 42.4765 67.548 49.3007 67.548 56.1448V62.6775C67.548 70.7672 63.5197 78.3202 56.8081 82.8255L44.8624 90.8423C39.5885 94.387 33.1022 95.109 26.914 93.6912C19.9904 92.1077 12.3248 93.9098 6.607 99.6607C0.663965 105.637 -1.21103 114.886 1.95594 122.691C7.32918 135.935 22.9984 140.255 34.1822 132.742C39.3964 129.243 42.5965 123.864 43.4843 118.113C44.5311 111.341 48.831 105.511 54.5223 101.688L61.2273 97.1894C69.4097 91.6969 80.0966 91.6969 88.279 97.1894L94.984 101.688C100.669 105.504 104.969 111.341 106.022 118.113C106.91 123.864 110.11 129.243 115.324 132.742C126.514 140.255 142.19 135.928 147.557 122.678C150.717 114.866 148.836 105.617 142.886 99.6474L142.866 99.6541Z" fill="white"/>
</svg>
