<svg width="129" height="129" viewBox="0 0 129 129" fill="none" xmlns="http://www.w3.org/2000/svg">
<path d="M124.731 94.9122C120.041 87.8959 112.448 84.6627 105.067 85.1994C99.4817 85.6035 93.9428 83.9338 89.9808 79.9718L87.6221 77.6131C80.4799 70.4708 80.4799 58.8963 87.6221 51.7541L89.9808 49.3954C93.9428 45.4333 99.4751 43.7636 105.06 44.1678C112.448 44.7045 120.054 41.4646 124.745 34.4284C129.415 27.4187 129.469 17.9774 124.851 10.9346C117.019 -1.01113 100.82 -2.22358 91.2993 7.30383C86.5554 12.041 84.4883 18.4345 85.078 24.6293C85.5881 30.0291 83.6601 35.3758 79.824 39.212L77.452 41.5839C70.3098 48.7262 58.7352 48.7262 51.5929 41.5839L49.2343 39.2252C45.2722 35.2632 43.6026 29.7309 44.0068 24.1391C44.5368 16.7583 41.3102 9.16557 34.2939 4.47474C27.2908 -0.209455 17.8495 -0.275683 10.7933 4.33563C-1.17885 12.1537 -2.39791 28.3727 7.13612 37.9068C11.8799 42.6506 18.2735 44.7178 24.4617 44.1282C29.8614 43.618 35.2082 45.546 39.0443 49.3821L41.4162 51.7605C48.5585 58.9028 48.5585 70.4775 41.4162 77.6197L39.0576 79.9784C35.0955 83.9404 29.5633 85.6101 23.9714 85.206C16.5906 84.6693 9.00449 87.9025 4.30704 94.9188C-0.377159 101.922 -0.443428 111.363 4.16789 118.419C11.9859 130.392 28.2051 131.617 37.7391 122.077C42.4829 117.333 44.55 110.946 43.9604 104.751C43.4502 99.3513 45.3782 94.0046 49.2144 90.1684L51.5863 87.7965C58.7285 80.6542 70.3032 80.6542 77.4455 87.7965L79.8173 90.1684C83.6535 94.0046 85.5815 99.3513 85.0713 104.751C84.4817 110.946 86.5554 117.333 91.2926 122.077C100.827 131.611 117.046 130.392 124.864 118.419C129.469 111.363 129.409 101.922 124.725 94.9188L124.731 94.9122Z" fill="white"/>
</svg>
