<svg width="194" height="145" viewBox="0 0 194 145" fill="none" xmlns="http://www.w3.org/2000/svg">
<path d="M121.267 0.372559C112.707 0.372559 104.498 1.8632 96.8785 4.59289C89.2593 1.8632 81.0503 0.372559 72.4902 0.372559C32.5652 0.372559 0.206577 32.7378 0.199951 72.6628C0.199951 112.588 32.5652 144.947 72.4902 144.947C81.0503 144.947 89.2593 143.456 96.8785 140.726C104.498 143.456 112.707 144.947 121.267 144.947C161.192 144.947 193.551 112.581 193.557 72.6628C193.557 32.7378 161.192 0.379184 121.267 0.372559ZM72.4902 139.043C54.1509 139.043 37.5742 131.616 25.549 119.598C13.5304 107.572 6.1098 90.9955 6.10317 72.6562C6.10317 54.3169 13.5304 37.7401 25.549 25.7149C37.5742 13.6964 54.1443 6.27578 72.4902 6.26915C78.0026 6.26915 83.356 6.9449 88.4775 8.21036C74.7694 15.2002 63.5857 26.437 56.6621 40.1915C60.75 35.6133 65.6859 31.817 71.2248 29.0409C77.7973 25.7481 85.2045 23.8797 93.0556 23.8797C119.995 23.8797 141.826 45.7171 141.826 72.6562C141.826 99.5953 119.988 121.433 93.0556 121.433C85.2045 121.433 77.7906 119.564 71.2248 116.272C65.6859 113.496 60.75 109.699 56.6621 105.121C63.5857 118.875 74.7694 130.112 88.4775 137.102C83.356 138.367 78.0026 139.043 72.4902 139.043ZM63.811 72.6628C63.811 56.5166 76.9028 43.4248 93.049 43.4248C109.195 43.4248 122.287 56.5166 122.287 72.6628C122.287 88.8091 109.195 101.901 93.049 101.901C76.9028 101.901 63.811 88.8091 63.811 72.6628Z" fill="white"/>
</svg>
